<svg width="16" height="17" viewBox="0 0 16 17" fill="none" xmlns="http://www.w3.org/2000/svg">
<path fill-rule="evenodd" clip-rule="evenodd" d="M14.6668 8.50004C14.6668 12.1819 11.6821 15.1667 8.00016 15.1667C4.31826 15.1667 1.3335 12.1819 1.3335 8.50004C1.3335 4.81814 4.31826 1.83337 8.00016 1.83337C11.6821 1.83337 14.6668 4.81814 14.6668 8.50004ZM8.50016 8.00004H10.6668C10.9402 8.00004 11.1668 8.22671 11.1668 8.50004C11.1668 8.77337 10.9402 9.00004 10.6668 9.00004H8.50016V11.1667C8.50016 11.44 8.2735 11.6667 8.00016 11.6667C7.72683 11.6667 7.50016 11.44 7.50016 11.1667V9.00004H5.3335C5.06016 9.00004 4.8335 8.77337 4.8335 8.50004C4.8335 8.22671 5.06016 8.00004 5.3335 8.00004H7.50016V5.83337C7.50016 5.56004 7.72683 5.33337 8.00016 5.33337C8.2735 5.33337 8.50016 5.56004 8.50016 5.83337V8.00004Z" fill="#FF5F33"/>
</svg>
