<svg width="49" height="48" viewBox="0 0 49 48" fill="none" xmlns="http://www.w3.org/2000/svg">
<rect x="0.5" width="48" height="48" rx="24" fill="#5B5AFF"/>
<g clip-path="url(#clip0_2026_9521)">
<path d="M24.4998 14.4166C19.2098 14.4166 14.9165 18.71 14.9165 24C14.9165 29.29 19.2098 33.5833 24.4998 33.5833C29.7898 33.5833 34.0832 29.29 34.0832 24C34.0832 18.71 29.7898 14.4166 24.4998 14.4166ZM27.049 25.6579L25.8223 26.367L24.5957 27.0762C23.0144 27.9866 21.7207 27.2391 21.7207 25.4183V24V22.5816C21.7207 20.7512 23.0144 20.0133 24.5957 20.9237L25.8223 21.6329L27.049 22.342C28.6303 23.2525 28.6303 24.7475 27.049 25.6579Z" fill="#F3F3F3"/>
</g>
<defs>
<clipPath id="clip0_2026_9521">
<rect width="20" height="20" fill="white" transform="translate(14.5 14)"/>
</clipPath>
</defs>
</svg>
