<svg width="16" height="17" viewBox="0 0 16 17" fill="none" xmlns="http://www.w3.org/2000/svg">
<path fill-rule="evenodd" clip-rule="evenodd" d="M0.833496 8.50001C0.833496 4.5572 4.05735 1.33334 8.00016 1.33334C11.943 1.33334 15.1668 4.5572 15.1668 8.50001C15.1668 12.4428 11.943 15.6667 8.00016 15.6667C4.05735 15.6667 0.833496 12.4428 0.833496 8.50001ZM8.00016 2.33334C4.60964 2.33334 1.8335 5.10949 1.8335 8.50001C1.8335 11.8905 4.60964 14.6667 8.00016 14.6667C11.3907 14.6667 14.1668 11.8905 14.1668 8.50001C14.1668 5.10949 11.3907 2.33334 8.00016 2.33334ZM8.00016 5.33334C8.27631 5.33334 8.50016 5.5572 8.50016 5.83334V8.00001H10.6668C10.943 8.00001 11.1668 8.22387 11.1668 8.50001C11.1668 8.77615 10.943 9.00001 10.6668 9.00001H8.50016V11.1667C8.50016 11.4428 8.27631 11.6667 8.00016 11.6667C7.72402 11.6667 7.50016 11.4428 7.50016 11.1667V9.00001H5.3335C5.05735 9.00001 4.8335 8.77615 4.8335 8.50001C4.8335 8.22387 5.05735 8.00001 5.3335 8.00001H7.50016V5.83334C7.50016 5.5572 7.72402 5.33334 8.00016 5.33334Z" fill="#5B5AFF"/>
</svg>
