<svg width="475" height="114" xmlns="http://www.w3.org/2000/svg" fill="none">

 <g>
  <title>Layer 1</title>
  <path stroke="null" id="svg_1" fill-opacity="0.25" fill="#393939" d="m432.314,89.3493c-0.597,0 -1.081,-0.4838 -1.081,-1.0805l0,-87.18825c0,-0.59677 0.484,-1.08055 1.081,-1.08055l11.99,0c0.596,0 1.08,0.48378 1.08,1.08055l0,87.18815c0,0.5968 -0.484,1.0806 -1.08,1.0806l-11.99,0z"/>
  <path id="svg_2" fill-opacity="0.25" fill="#393939" d="m332.677,89.4273c-0.437,0 -0.832,-0.2638 -0.999,-0.6681l-22.965,-58.1848c-0.294,-0.7113 0.229,-1.493 0.999,-1.493l12.736,0c0.443,0 0.842,0.2712 1.005,0.6838l8.501,24.1095c2.441,6.277 4.651,12.323 6.86,18.3675c0.024,0.0664 0.087,0.1105 0.158,0.1105c0.07,0 0.132,-0.0433 0.157,-0.1088c2.325,-6.1634 4.652,-12.4417 7.21,-18.72l8.499,-23.7641c0.164,-0.4098 0.561,-0.6784 1.003,-0.6784l11.925,0c0.769,0 1.291,0.7802 0.999,1.4913l-22.852,58.1847c-0.167,0.4053 -0.562,0.6699 -1,0.6699l-12.236,0z"/>
  <path id="svg_3" fill-opacity="0.25" fill="#393939" d="m277.137,89.4273c-17.893,0 -31.225,-13.2153 -31.225,-30.1729c0,-17.0746 13.332,-30.173 31.225,-30.173c17.893,0 31.226,13.0984 31.226,30.173c0,16.9576 -13.333,30.1729 -31.226,30.1729zm0,-12.5136c9.707,0 17.075,-7.7186 17.075,-17.6593c0,-9.9407 -7.368,-17.7763 -17.075,-17.7763c-9.823,0 -17.074,7.8356 -17.074,17.7763c0,9.9407 7.251,17.6593 17.074,17.6593z"/>
  <path id="svg_4" fill-opacity="0.25" fill="#393939" d="m184.105,114c-0.597,0 -1.08,-0.484 -1.08,-1.081l0,-82.6267c0,-0.5968 0.483,-1.0806 1.08,-1.0806l28.859,0c14.969,0 27.366,11.695 27.366,29.4713c0,18.0102 -12.865,30.8746 -29.939,30.8746c-4.981,0 -9.273,-1.1471 -12.877,-2.9869c-0.066,-0.0337 -0.144,-0.0342 -0.21,-0.001c-0.079,0.0393 -0.129,0.1197 -0.129,0.2077l0,26.1416c0,0.597 -0.483,1.081 -1.08,1.081l-11.99,0zm24.765,-36.3712c-4.196,0 -8.184,-1.2515 -11.176,-2.9665c-0.325,-0.1866 -0.519,-0.5367 -0.519,-0.9119l0,-31.2954c0,-0.5968 0.485,-1.0805 1.081,-1.0805c3.663,0 6.73,0 11.316,0c10.292,0 16.49,7.9525 16.49,18.0102c0,10.4085 -6.315,18.2441 -17.192,18.2441z" clip-rule="evenodd" fill-rule="evenodd"/>
  <path id="svg_5" fill-opacity="0.25" fill="#393939" d="m58.9151,89.3493c-0.5968,0 -1.0806,-0.4838 -1.0806,-1.0805l0,-87.18825c0,-0.59677 0.4838,-1.08055 1.0806,-1.08055l11.9898,0c0.5967,0 1.0805,0.48378 1.0805,1.08055l0,35.98295c0,0.0775 0.0438,0.1483 0.113,0.1829c0.0733,0.0367 0.1611,0.0262 0.2237,-0.0266c4.6709,-3.9335 11.1799,-6.9299 18.726,-6.9299c6.3153,0 11.3439,1.9881 15.0869,5.9644c3.625,3.9763 5.028,9.1221 5.028,16.8407l0,35.1737c0,0.5968 -0.483,1.0806 -1.08,1.0806l-11.9899,0c-0.5968,0 -1.0805,-0.4838 -1.0805,-1.0805l0,-33.4196c0,-4.0932 -0.5848,-7.1339 -2.5729,-9.122c-1.9882,-1.9881 -4.795,-2.9237 -7.9526,-2.9237c-5.2237,0 -10.5577,2.5361 -14.1818,6.0024c-0.2071,0.1981 -0.3199,0.4738 -0.3199,0.7604l0,38.7025c0,0.5967 -0.4838,1.0805 -1.0805,1.0805l-11.9898,0z"/>
  <path id="svg_6" fill-opacity="0.25" fill="#393939" d="m23.7781,89.5576c-7.159,0 -15.97415,-1.4354 -22.36873,-4.8425c-0.34423,-0.1834 -0.55338,-0.5446 -0.55338,-0.9346l0,-10.484c0,-0.8557 0.95219,-1.379 1.69682,-0.9575c6.96745,3.9447 15.41039,5.6406 21.45919,5.6406c6.4322,0 10.5254,-1.8712 10.5254,-5.9644c0,-2.9237 -1.7542,-4.4441 -6.6661,-5.6136c-4.9119,-1.1695 -13.917,-2.4559 -19.4136,-5.0288c-5.61357,-2.5729 -8.3034,-7.017 -8.3034,-13.6831c0,-12.1627 9.9407,-18.478 23.8577,-18.478c6.8917,0 14.984,1.528 20.692,4.2678c0.3661,0.1757 0.5927,0.5489 0.5927,0.955l0,9.934c0,0.8157 -0.8713,1.3407 -1.6067,0.9877c-6.6322,-3.1839 -14.0379,-4.6834 -19.4441,-4.6834c-5.9645,0 -9.9407,1.7542 -9.9407,5.7305c0,3.0407 2.222,4.4441 7.2508,5.6136c5.0289,1.0525 13.4492,2.222 18.8289,4.6779c5.4966,2.5729 8.3034,6.9 8.3034,14.034c0,12.8644 -11.2272,18.8288 -24.9102,18.8288z"/>
  <path id="svg_7" fill-opacity="0.25" fill="#393939" d="m167.768,89.4406l-27.925,0c-11.461,0 -20.115,-6.1983 -20.115,-17.3085c0,-12.2796 9.473,-17.8932 23.857,-17.8932c3.509,0 7.602,0.3508 11.345,0.9356l0,-3.5085c0,-7.1339 -4.795,-10.2915 -13.917,-10.2915c-5.877,0 -11.052,1.4924 -14.84,3.3363c-0.747,0.3638 -1.65,-0.1639 -1.65,-0.9951l0,-9.4393c0,-0.3843 0.202,-0.7408 0.539,-0.9249c4.239,-2.3138 10.8,-4.1398 18.757,-4.1398c15.672,0 25.028,6.9 25.028,20.7001l0,7.6071l6.008,1.0123c0.52,0.0876 0.901,0.538 0.901,1.0655l0,7.1457c0,0.6706 -0.604,1.1793 -1.265,1.0646l-5.644,-0.9792l0,5.6552l0,15.8773c0,0.5967 -0.482,1.0803 -1.079,1.0803zm-13.918,-10.8763l-10.615,0c-5.38,0 -9.59,-2.222 -9.59,-7.3678c0,-5.7305 5.496,-7.6017 12.046,-7.6017c2.806,0 6.549,0.3509 9.239,0.8187l0,13.0703c0,0.5968 -0.483,1.0805 -1.08,1.0805z" clip-rule="evenodd" fill-rule="evenodd"/>
  <path id="svg_8" fill-opacity="0.25" fill="#393939" d="m418.089,89.4407l-27.925,0c-11.461,0 -20.116,-6.1984 -20.116,-17.3086c0,-12.2796 9.473,-17.8932 23.858,-17.8932c3.508,0 7.602,0.3508 11.344,0.9356l0,-3.5085c0,-7.1339 -4.795,-10.2915 -13.917,-10.2915c-5.877,0 -11.051,1.4924 -14.839,3.3363c-0.747,0.3638 -1.651,-0.1639 -1.651,-0.9951l0,-9.4393c0,-0.3843 0.202,-0.7408 0.54,-0.9249c4.238,-2.3138 10.799,-4.1398 18.757,-4.1398c15.671,0 25.027,6.9 25.027,20.7001l0,7.6072l6.009,1.0122c0.52,0.0876 0.901,0.538 0.901,1.0655l0,7.1457c0,0.6706 -0.605,1.1793 -1.266,1.0646l-5.644,-0.9792l0,5.6552l0,15.8773c0,0.5967 -0.481,1.0804 -1.078,1.0804zm-13.919,-10.8763l-10.615,0c-5.38,0 -9.59,-2.2221 -9.59,-7.3679c0,-5.7305 5.497,-7.6017 12.046,-7.6017c2.807,0 6.549,0.3509 9.239,0.8187l0,13.0703c0,0.5968 -0.483,1.0806 -1.08,1.0806z" clip-rule="evenodd" fill-rule="evenodd"/>
 </g>
</svg>